<svg width="118" height="112" viewBox="0 0 118 112" fill="none" xmlns="http://www.w3.org/2000/svg">
<path opacity="0.2" d="M55.8 97.8C32.6 97.8 13.7 79 13.7 55.7C13.7 32.4 32.5 13.6 55.8 13.6C55.9 13.6 56.1 13.6 56.2 13.6V0C56.1 0 55.9 0 55.8 0C25 0 0 25 0 55.8C0 86.6 25 111.6 55.8 111.6C55.9 111.6 56.1 111.6 56.2 111.6V97.8C56.1 97.8 55.9 97.8 55.8 97.8Z" fill="black"/>
<path d="M61.9004 0V13.7C85.1004 13.7 104 32.5 104 55.8H117.7C117.6 25 92.7004 0 61.9004 0Z" fill="#566F85"/>
<path d="M61.5002 97.8C38.3002 97.8 19.4002 79 19.4002 55.7C19.4002 32.4 38.2002 13.6 61.5002 13.6V0C30.7002 0 5.7002 25 5.7002 55.8C5.7002 86.6 30.7002 111.6 61.5002 111.6C61.6002 111.6 61.7002 111.6 61.8002 111.6L61.7002 97.9C61.7002 97.8 61.6002 97.8 61.5002 97.8Z" fill="#AEE7F4"/>
<path d="M117.8 56L104.1 56.2C103.9 79.2 85.2002 97.7 62.2002 97.8L62.3002 111.5C92.9002 111.4 117.7 86.6 117.8 56Z" fill="#9BC4CA"/>
</svg>
